<svg width="149" height="125" viewBox="0 0 149 125" fill="none" xmlns="http://www.w3.org/2000/svg">
<path d="M69.8471 1.84637L0 62.192L69.8471 122.538C70.4779 123.25 71.2794 123.837 72.1972 124.26C73.1149 124.682 74.1277 124.93 75.1668 124.987C76.2059 125.044 77.2471 124.909 78.2199 124.59C79.1928 124.271 80.0745 123.776 80.8055 123.139C81.5365 122.501 82.0996 121.736 82.4568 120.896C82.8139 120.055 82.9568 119.158 82.8756 118.266C82.7945 117.374 82.4913 116.507 81.9865 115.725C81.4817 114.942 80.7872 114.261 79.9499 113.729L27.6917 68.439L141.5 68.439C143.428 68.439 145.276 67.7808 146.639 66.6093C148.002 65.4378 148.768 63.8488 148.768 62.192C148.768 60.5352 148.002 58.9463 146.639 57.7748C145.276 56.6032 143.428 55.9451 141.5 55.9451L27.6917 55.9451L79.9499 10.6546C81.3089 9.47826 82.0685 7.88611 82.0617 6.22839C82.0549 4.57067 81.2822 2.98317 79.9135 1.81513C78.5449 0.64709 76.6925 -0.00581185 74.7638 4.57764e-05C72.8351 0.00590341 70.9881 0.670041 69.6291 1.84637H69.8471Z" fill="black"/>
</svg>
