<svg width="165" height="166" viewBox="0 0 165 166" fill="none" xmlns="http://www.w3.org/2000/svg">
<path d="M33.9639 124.742L132.622 124.667M82.6222 8C98.6055 8 111.956 19.25 115.206 34.2583C119.431 33.1147 123.841 32.8147 128.183 33.3753C132.525 33.9359 136.713 35.3462 140.51 37.5257C144.307 39.7051 147.637 42.6111 150.311 46.0776C152.985 49.5441 154.949 53.5033 156.093 57.7292C157.237 61.955 157.537 66.3647 156.976 70.7065C156.415 75.0483 155.005 79.2371 152.826 83.0339C150.646 86.8306 147.74 90.1609 144.274 92.8346C140.807 95.5083 136.848 97.4731 132.622 98.6167V158H32.6222V98.6167C28.3964 97.472 24.4374 95.5062 20.9713 92.8314C17.5052 90.1567 14.5998 86.8255 12.4211 83.028C10.2424 79.2305 8.83306 75.041 8.27346 70.6988C7.71386 66.3566 8.015 61.9467 9.15969 57.7208C10.3044 53.495 12.2702 49.536 14.9449 46.0699C17.6196 42.6038 20.9508 39.6985 24.7484 37.5198C28.5459 35.3411 32.7354 33.9317 37.0776 33.3721C41.4198 32.8125 45.8297 33.1136 50.0555 34.2583C51.6708 26.8214 55.7823 20.1611 61.7068 15.3842C67.6312 10.6074 75.0118 8.00164 82.6222 8Z" stroke="black" stroke-width="15" stroke-linecap="round" stroke-linejoin="round"/>
</svg>
