<svg width="458" height="276" viewBox="0 0 458 276" fill="none" xmlns="http://www.w3.org/2000/svg">
<g clip-path="url(#clip0_575_2674)">
<g clip-path="url(#clip1_575_2674)">
<path d="M449.104 240.084C443.156 240.798 436.671 240.039 429.638 237.796C422.608 235.539 415.303 232.17 407.736 227.675C400.162 223.178 392.5 217.775 384.752 211.482C377 205.185 369.569 198.44 362.445 191.245C355.324 184.057 348.696 176.498 342.571 168.582C336.445 160.665 331.213 152.932 326.888 145.374C338.243 142.86 349.963 138.945 362.04 133.64C374.113 128.336 385.293 122.261 395.565 115.424C405.841 108.59 414.588 101.304 421.799 93.5681C429.006 85.8362 433.512 78.1886 435.32 70.6337C436.577 65.0581 436.71 59.8406 435.722 54.9835C434.734 50.1247 433.062 45.8999 430.72 42.3019C428.378 38.704 425.669 35.827 422.608 33.6676C419.537 31.5081 416.752 30.1602 414.225 29.6203C411.697 29.0805 409.628 29.5298 408.005 30.9683C406.389 32.4102 405.841 34.9284 406.389 38.5229C407.282 45.1824 405.307 53.1863 400.438 62.5385C395.565 71.8935 388.986 81.1575 380.696 90.3328C372.406 99.5032 362.937 107.914 352.302 115.56C341.667 123.205 330.944 128.646 320.131 131.884C319.223 129.725 318.41 127.566 317.691 125.407C316.969 123.25 316.344 121.182 315.799 119.202C319.583 110.93 323.325 102.836 327.021 94.9168C330.714 87.0024 334.459 79.6296 338.243 72.7914C344.19 68.6553 349.691 64.5193 354.738 60.3804C359.604 56.4255 363.481 52.4653 366.364 48.5086C369.247 44.5519 371.143 40.8182 372.043 37.3073C372.944 33.8034 373.031 30.6966 372.316 28.0007C371.593 25.3014 370.057 23.236 367.719 21.7941C355.098 14.2394 339.412 24.8556 320.668 53.6321C313.094 55.4363 305.702 56.6484 298.494 57.2788C291.283 57.9099 284.522 57.9099 278.219 57.2788C271.901 56.6484 266.226 55.3005 261.179 53.2281C256.135 51.1627 251.985 48.2404 248.746 44.4579C246.397 41.7621 244.24 40.8182 242.25 41.6262C240.268 42.4378 238.735 44.3221 237.657 47.2931C236.575 50.2606 236.034 53.9038 236.034 58.2199C236.034 62.5385 236.844 66.9016 238.467 71.3069C240.09 75.7178 242.564 79.8065 245.905 83.5859C249.238 87.3615 253.702 90.0608 259.287 91.68C266.138 93.6622 272.892 94.6064 279.569 94.5124C286.236 94.4253 292.906 93.4811 299.576 91.68C295.43 100.137 291.283 108.681 287.136 117.311C282.99 125.949 278.983 134.27 275.105 142.271C271.227 150.279 267.398 157.787 263.611 164.802C259.828 171.818 256.219 177.756 252.802 182.615C248.289 189.083 243.604 193.767 238.735 196.645C233.873 199.517 229.137 201.05 224.54 201.231C219.947 201.405 215.751 200.461 211.968 198.396C208.181 196.33 205.074 193.628 202.638 190.302C200.205 186.975 198.627 183.196 197.908 178.967C197.186 174.743 197.723 170.647 199.531 166.69C200.969 163.454 201.057 161.159 199.8 159.811C198.537 158.46 196.641 158.018 194.121 158.46C191.598 158.913 188.757 160.31 185.605 162.643C182.45 164.987 179.699 168.313 177.357 172.628C172.125 182.342 169.828 191.34 170.464 199.608C171.092 207.884 173.706 214.989 178.303 220.93C182.9 226.862 188.984 231.355 196.554 234.413C204.125 237.474 212.282 238.733 221.025 238.196C229.769 237.656 238.557 234.958 247.388 230.102C256.219 225.243 264.247 217.867 271.454 207.974C276.683 200.778 281.904 192.012 287.136 181.666C292.365 171.326 297.597 160.215 302.826 148.341H308.504C310.665 154.82 313.325 161.929 316.477 169.658C319.628 177.393 323.283 185.265 327.429 193.272C331.576 201.273 336.218 209.19 341.352 217.016C346.494 224.839 352.033 232.076 357.981 238.733C363.932 245.385 370.242 251.236 376.905 256.276C383.579 261.309 390.699 264.998 398.274 267.335C405.122 269.672 411.746 270.529 418.144 269.898C424.546 269.268 430.319 267.833 435.453 265.579C440.587 263.333 444.957 260.634 448.57 257.486C452.172 254.34 454.741 251.418 456.277 248.718C457.802 246.019 458.032 243.772 456.95 241.975C455.865 240.171 453.25 239.548 449.104 240.084Z" fill="#D84086"/>
</g>
<g clip-path="url(#clip2_575_2674)">
<path d="M127.261 50.0577C136.206 45.9698 144.865 43.5406 153.245 42.7776C162.191 42.0182 168.805 43.2568 173.089 46.4895C177.372 49.7296 179.373 53.5338 179.087 57.913C178.8 62.2943 176.277 66.6211 171.52 70.9048C166.758 75.1885 159.713 77.9992 150.391 79.3313C142.397 80.6632 133.971 80.1419 125.12 77.7603C116.268 75.3816 108.223 71.527 100.993 66.1935C109.559 59.5312 118.313 54.1531 127.261 50.0577ZM137.541 171.852C133.924 168.044 129.874 165.047 125.404 162.857C120.931 160.672 116.312 159.246 111.555 158.575C106.796 157.907 102.749 157.859 99.4217 158.434C96.0886 159.002 93.8528 160.144 92.7095 161.859C91.568 163.573 92.3265 165.671 94.9958 168.14C100.322 173.474 103.368 179.468 104.131 186.132C104.89 192.793 103.846 199.074 100.993 204.979C98.1361 210.877 93.7562 215.736 87.856 219.548C81.9557 223.355 75.1027 224.973 67.2962 224.399C59.1111 223.827 52.5931 220.727 47.7386 215.113C42.8836 209.503 39.7448 202.122 38.3151 192.989C36.8883 183.847 37.2182 173.474 39.3172 161.859C41.4078 150.248 45.4047 138.157 51.3105 125.591C54.3513 119.122 58.0168 112.741 62.3001 106.459C66.5834 100.175 71.3896 94.0845 76.7193 88.1796C86.2394 93.1342 96.4686 96.6058 107.418 98.6044C118.359 100.606 129.162 101.417 139.824 101.034C152.768 100.653 163.713 98.3681 172.663 94.1766C181.61 89.9936 188.553 84.8532 193.506 78.7596C198.452 72.6686 201.359 66.1935 202.215 59.3395C203.072 52.4869 201.929 46.0619 198.789 40.0646C195.648 34.0672 190.509 29.0687 183.37 25.073C176.232 21.0772 167.137 18.8876 156.1 18.5042C142.397 18.1246 129.211 19.8386 116.555 23.6427C103.892 27.4542 91.948 32.7807 80.7192 39.637C78.0514 32.0251 77.3861 23.9303 78.7207 15.3636C79.6694 10.2214 79.0506 6.9887 76.8664 5.65431C74.6737 4.32361 71.9108 4.41573 68.5833 5.93811C65.2517 7.46418 61.6812 10.2215 57.8745 14.2209C54.0649 18.2204 50.9246 22.8871 48.451 28.2136C45.9775 33.5474 44.6414 39.3052 44.4542 45.4906C44.2629 51.6796 46.0711 57.8208 49.8808 63.9099C42.2644 71.3339 35.4125 79.3313 29.3209 87.8958C23.2278 96.4631 17.9942 105.317 13.6173 114.455C5.05071 132.352 0.526974 149.293 0.053289 165.283C-0.423275 181.278 2.23886 195.274 8.04831 207.268C13.852 219.26 22.2257 228.829 33.178 235.968C44.1217 243.102 56.6346 246.67 70.7258 246.67C83.0976 246.67 94.1823 244.937 103.992 241.464C113.792 237.989 121.931 233.374 128.404 227.615C134.872 221.847 139.539 215.349 142.397 208.12C145.251 200.888 146.008 193.553 144.678 186.132C143.536 180.418 141.155 175.664 137.541 171.852Z" fill="#D84086"/>
</g>
</g>
<defs>
<clipPath id="clip0_575_2674">
<rect width="458" height="275" fill="white" transform="translate(0 0.236816)"/>
</clipPath>
<clipPath id="clip1_575_2674">
<rect width="298" height="261" fill="white" transform="translate(166 14.5)"/>
</clipPath>
<clipPath id="clip2_575_2674">
<rect width="206.294" height="250" fill="white" transform="translate(0 0.5)"/>
</clipPath>
</defs>
</svg>
