<svg width="123" height="123" viewBox="0 0 123 123" fill="none" xmlns="http://www.w3.org/2000/svg">
<path d="M30.5749 19.2663L61.9695 50.661L93.2015 19.429C93.8914 18.6947 94.7225 18.1073 95.6449 17.702C96.5673 17.2967 97.5621 17.0818 98.5695 17.0703C100.727 17.0703 102.795 17.9272 104.321 19.4525C105.846 20.9778 106.703 23.0466 106.703 25.2036C106.722 26.2008 106.537 27.1913 106.159 28.1144C105.782 29.0375 105.219 29.8737 104.507 30.5716L72.8682 61.8036L104.507 93.4423C105.847 94.7537 106.633 96.5296 106.703 98.4036C106.703 100.561 105.846 102.629 104.321 104.155C102.795 105.68 100.727 106.537 98.5695 106.537C97.533 106.58 96.4988 106.407 95.5327 106.029C94.5666 105.651 93.6896 105.076 92.9575 104.341L61.9695 72.9463L30.6562 104.26C29.969 104.969 29.148 105.536 28.2406 105.927C27.3332 106.318 26.3574 106.525 25.3695 106.537C23.2124 106.537 21.1437 105.68 19.6184 104.155C18.0931 102.629 17.2362 100.561 17.2362 98.4036C17.2172 97.4065 17.4022 96.4159 17.7799 95.4929C18.1575 94.5698 18.7198 93.7336 19.4322 93.0356L51.0709 61.8036L19.4322 30.165C18.0917 28.8535 17.3056 27.0777 17.2362 25.2036C17.2362 23.0466 18.0931 20.9778 19.6184 19.4525C21.1437 17.9272 23.2124 17.0703 25.3695 17.0703C27.3215 17.0947 29.1922 17.8836 30.5749 19.2663Z" fill="#D85984"/>
</svg>
