<svg width="90" height="150" viewBox="0 0 90 150" fill="none" xmlns="http://www.w3.org/2000/svg">
<path d="M75 48.75H90C90 27.4725 69.3375 17.7675 52.5 15.5325V0H37.5V15.5325C20.6625 17.7675 0 27.4725 0 48.75C0 69.045 19.995 79.5975 37.5 81.975V119.25C26.64 117.367 15 111.57 15 101.25H0C0 120.667 18.1875 132.143 37.5 134.52V150H52.5V134.475C69.3375 132.24 90 122.527 90 101.25C90 79.9725 69.3375 70.2675 52.5 68.0325V30.75C62.475 32.5425 75 37.8075 75 48.75ZM15 48.75C15 37.8075 27.525 32.5425 37.5 30.75V66.7425C27.2175 64.845 15 59.2275 15 48.75ZM75 101.25C75 112.192 62.475 117.457 52.5 119.25V83.25C62.475 85.0425 75 90.3075 75 101.25Z" fill="black"/>
</svg>
