<svg width="16" height="16" viewBox="0 0 16 16" fill="none" xmlns="http://www.w3.org/2000/svg">
<path d="M1.00127 6.98218C0.448989 6.98148 0.000703907 7.42862 8.19002e-07 7.9809C-0.000702269 8.53319 0.446443 8.98147 0.998727 8.98218L1.00127 6.98218ZM15.7062 8.70801C16.0972 8.31798 16.098 7.68482 15.708 7.29379L9.35215 0.921737C8.96213 0.530716 8.32896 0.52991 7.93794 0.919937C7.54692 1.30996 7.54611 1.94313 7.93614 2.33415L13.5858 7.9982L7.92174 13.6478C7.53072 14.0379 7.52991 14.671 7.91994 15.0621C8.30996 15.4531 8.94313 15.4539 9.33415 15.0639L15.7062 8.70801ZM0.998727 8.98218L14.9987 9L15.0013 7L1.00127 6.98218L0.998727 8.98218Z" fill="#868383"/>
</svg>
