<svg width="127" height="150" viewBox="0 0 127 150" fill="none" xmlns="http://www.w3.org/2000/svg">
<path d="M68.5321 0L49.519 31.7471L37.7787 20.0064L33.3173 25.0826C11.2137 50.1652 0 72.9543 0 92.8208C0 124.346 28.4688 150 63.4615 150C98.4542 150 126.923 124.346 126.923 92.8208C126.923 62.5667 93.9421 25.2605 74.2817 5.71792L68.5321 0ZM71.0198 20.54C87.3675 37.6048 114.231 69.2376 114.231 92.8208C114.231 108.011 105.473 121.436 92.1652 129.466C94.1525 124.766 95.1817 119.716 95.1923 114.612C95.1923 99.4854 84.499 81.5375 75.5319 69.155L70.1821 61.7471L56.1254 82.859L47.2027 73.9199L43.0142 80.845C35.5194 93.2084 31.7308 104.574 31.7308 114.612C31.7308 119.93 32.8604 124.93 34.7579 129.466C21.45 121.436 12.6923 108.005 12.6923 92.8208C12.6923 77.643 21.5642 59.0025 38.4387 38.6277L52.0194 52.2427L71.0198 20.54ZM70.4677 84.2313C78.2735 96.4104 82.5 107.014 82.5 114.612C82.5 127.122 73.9581 137.294 63.4615 137.294C52.965 137.294 44.4231 127.122 44.4231 114.612C44.4231 108.755 46.2635 102.046 49.9125 94.6061L58.1054 102.802L70.4677 84.2313Z" fill="black"/>
</svg>
