<svg width="150" height="150" viewBox="0 0 150 150" fill="none" xmlns="http://www.w3.org/2000/svg">
<g clip-path="url(#clip0_302_2124)">
<path fill-rule="evenodd" clip-rule="evenodd" d="M56.25 81.25C59.5652 81.25 62.7446 82.567 65.0888 84.9112C67.433 87.2554 68.75 90.4348 68.75 93.75V118.75C68.75 122.065 67.433 125.245 65.0888 127.589C62.7446 129.933 59.5652 131.25 56.25 131.25H31.25C27.9348 131.25 24.7554 129.933 22.4112 127.589C20.067 125.245 18.75 122.065 18.75 118.75V93.75C18.75 90.4348 20.067 87.2554 22.4112 84.9112C24.7554 82.567 27.9348 81.25 31.25 81.25H56.25ZM118.75 81.25C121.904 81.249 124.941 82.44 127.253 84.5844C129.566 86.7287 130.982 89.6678 131.219 92.8125L131.25 93.75V118.75C131.251 121.904 130.06 124.941 127.916 127.253C125.771 129.566 122.832 130.982 119.687 131.219L118.75 131.25H93.75C90.5964 131.251 87.559 130.06 85.2466 127.916C82.9342 125.771 81.5178 122.832 81.2813 119.687L81.25 118.75V93.75C81.249 90.5964 82.44 87.559 84.5844 85.2466C86.7287 82.9342 89.6678 81.5178 92.8125 81.2813L93.75 81.25H118.75ZM56.25 93.75H31.25V118.75H56.25V93.75ZM118.75 93.75H93.75V118.75H118.75V93.75ZM118.75 18.75C121.904 18.749 124.941 19.94 127.253 22.0844C129.566 24.2287 130.982 27.1678 131.219 30.3125L131.25 31.25V56.25C131.251 59.4036 130.06 62.441 127.916 64.7534C125.771 67.0658 122.832 68.4822 119.687 68.7187L118.75 68.75H93.75C90.5964 68.751 87.559 67.56 85.2466 65.4156C82.9342 63.2713 81.5178 60.3322 81.2813 57.1875L81.25 56.25V31.25C81.249 28.0964 82.44 25.059 84.5844 22.7466C86.7287 20.4342 89.6678 19.0178 92.8125 18.7813L93.75 18.75H118.75ZM56.25 18.75C59.4036 18.749 62.441 19.94 64.7534 22.0844C67.0658 24.2287 68.4822 27.1678 68.7187 30.3125L68.75 31.25V56.25C68.751 59.4036 67.56 62.441 65.4156 64.7534C63.2713 67.0658 60.3322 68.4822 57.1875 68.7187L56.25 68.75H31.25C28.0964 68.751 25.059 67.56 22.7466 65.4156C20.4342 63.2713 19.0178 60.3322 18.7813 57.1875L18.75 56.25V31.25C18.749 28.0964 19.94 25.059 22.0844 22.7466C24.2287 20.4342 27.1678 19.0178 30.3125 18.7813L31.25 18.75H56.25ZM118.75 31.25H93.75V56.25H118.75V31.25ZM56.25 31.25H31.25V56.25H56.25V31.25Z" fill="black"/>
<rect x="25" y="87.5" width="37.5" height="37.5" fill="black"/>
<rect x="87.5" y="25" width="37.5" height="37.5" fill="black"/>
<rect x="25" y="25" width="37.5" height="37.5" fill="black"/>
<rect x="87.5" y="87.5" width="37.5" height="37.5" fill="black"/>
</g>
<defs>
<clipPath id="clip0_302_2124">
<rect width="150" height="150" fill="white"/>
</clipPath>
</defs>
</svg>
