<svg width="100" height="100" viewBox="0 0 100 100" fill="none" xmlns="http://www.w3.org/2000/svg">
<path d="M37.4998 45.7916C38.6048 45.7916 39.6646 45.3526 40.446 44.5712C41.2274 43.7898 41.6664 42.73 41.6664 41.6249C41.6664 40.5199 41.2274 39.4601 40.446 38.6787C39.6646 37.8973 38.6048 37.4583 37.4998 37.4583C36.3947 37.4583 35.3349 37.8973 34.5535 38.6787C33.7721 39.4601 33.3331 40.5199 33.3331 41.6249C33.3331 42.73 33.7721 43.7898 34.5535 44.5712C35.3349 45.3526 36.3947 45.7916 37.4998 45.7916ZM58.3331 54.1166C58.3331 55.2217 57.8941 56.2815 57.1127 57.0629C56.3313 57.8443 55.2715 58.2833 54.1664 58.2833C53.0614 58.2833 52.0016 57.8443 51.2202 57.0629C50.4387 56.2815 49.9998 55.2217 49.9998 54.1166C49.9998 53.0115 50.4387 51.9517 51.2202 51.1703C52.0016 50.3889 53.0614 49.9499 54.1664 49.9499C55.2715 49.9499 56.3313 50.3889 57.1127 51.1703C57.8941 51.9517 58.3331 53.0115 58.3331 54.1166ZM37.4998 70.775C38.6048 70.775 39.6646 70.336 40.446 69.5546C41.2274 68.7732 41.6664 67.7134 41.6664 66.6083C41.6664 65.5032 41.2274 64.4434 40.446 63.662C39.6646 62.8806 38.6048 62.4416 37.4998 62.4416C36.3947 62.4416 35.3349 62.8806 34.5535 63.662C33.7721 64.4434 33.3331 65.5032 33.3331 66.6083C33.3331 67.7134 33.7721 68.7732 34.5535 69.5546C35.3349 70.336 36.3947 70.775 37.4998 70.775ZM20.8331 19.4166C20.8331 13.1791 25.9581 7.72909 32.5831 8.38326C54.1556 10.5214 74.1414 20.6734 88.5914 36.8333C93.0498 41.8041 91.6623 49.1833 86.5956 52.8541C80.004 57.6375 70.1789 64.7583 64.5831 68.825C64.5748 70.6458 64.5748 71.8291 64.5789 73.375V75.9916C64.5795 77.0575 64.3464 78.1105 63.8961 79.0765C63.4457 80.0426 62.7891 80.8981 61.9724 81.583C61.1556 82.2678 60.1987 82.7653 59.169 83.0403C58.1392 83.3154 57.0617 83.3613 56.0123 83.175C55.1623 86.6166 52.1289 89.5375 47.9123 89.5375C44.9956 89.5375 42.6539 88.1416 41.2081 86.1416L35.6873 90.1291C29.4872 94.6041 20.8122 90.175 20.8164 82.5208L20.8331 19.4166ZM31.9706 14.6041C29.4331 14.3541 27.0789 16.4499 27.0789 19.4166V21.5833C37.5385 22.0224 47.7818 24.7026 57.116 29.4427C66.4502 34.1828 74.6576 40.8721 81.1831 49.0583L82.9289 47.7916C85.3373 46.0416 85.6456 42.9041 83.9373 40.9999C70.5285 26.0096 51.9851 16.5937 31.9706 14.6124M27.0664 82.5291C27.0659 83.1053 27.2247 83.6704 27.5253 84.162C27.8259 84.6535 28.2565 85.0524 28.7696 85.3146C29.2827 85.5767 29.8583 85.6919 30.4327 85.6474C31.0072 85.6029 31.5581 85.4005 32.0247 85.0625L40.8914 78.675C41.358 78.3393 41.9081 78.1388 42.4813 78.0956C43.0545 78.0523 43.6285 78.168 44.1401 78.4298C44.6518 78.6917 45.0813 79.0896 45.3815 79.5798C45.6817 80.07 45.8408 80.6335 45.8414 81.2083C45.8414 82.3333 46.7123 83.2916 47.9123 83.2916C48.187 83.2944 48.4596 83.2425 48.714 83.1389C48.9685 83.0352 49.1998 82.882 49.3945 82.6881C49.5892 82.4942 49.7433 82.2635 49.848 82.0095C49.9526 81.7554 50.0056 81.4831 50.0039 81.2083V75.9958C50.0039 75.167 50.3332 74.3721 50.9192 73.7861C51.5053 73.2 52.3001 72.8708 53.1289 72.8708C53.9577 72.8708 54.7526 73.2 55.3386 73.7861C55.9247 74.3721 56.2539 75.167 56.2539 75.9958C56.2539 76.5791 56.7164 77.0375 57.2873 77.0375C57.5635 77.0375 57.8285 76.9277 58.0238 76.7324C58.2192 76.537 58.3289 76.2721 58.3289 75.9958V73.4041C58.3248 71.4458 58.3206 70.0375 58.3498 67.2C58.3536 66.712 58.4717 66.2317 58.6946 65.7976C58.9174 65.3634 59.2388 64.9875 59.6331 64.7C63.3914 61.9666 70.0331 57.15 76.1164 52.7416C70.1756 45.351 62.7302 39.3092 54.2747 35.0175C45.8191 30.7258 36.5472 28.2825 27.0747 27.8499L27.0664 82.5291Z" fill="black"/>
</svg>
