<svg width="30" height="30" viewBox="0 0 30 30" fill="none" xmlns="http://www.w3.org/2000/svg">
<path d="M20 10V6.25H10V10H7.5V3.75H22.5V10H20ZM22.5 15.625C22.8542 15.625 23.1512 15.505 23.3912 15.265C23.6312 15.025 23.7508 14.7283 23.75 14.375C23.7492 14.0217 23.6292 13.725 23.39 13.485C23.1508 13.245 22.8542 13.125 22.5 13.125C22.1458 13.125 21.8492 13.245 21.61 13.485C21.3708 13.725 21.2508 14.0217 21.25 14.375C21.2492 14.7283 21.3692 15.0254 21.61 15.2663C21.8508 15.5071 22.1475 15.6267 22.5 15.625ZM20 23.75V18.75H10V23.75H20ZM22.5 26.25H7.5V21.25H2.5V13.75C2.5 12.6875 2.86458 11.7971 3.59375 11.0787C4.32292 10.3604 5.20833 10.0008 6.25 10H23.75C24.8125 10 25.7033 10.3596 26.4225 11.0787C27.1417 11.7979 27.5008 12.6883 27.5 13.75V21.25H22.5V26.25ZM25 18.75V13.75C25 13.3958 24.88 13.0992 24.64 12.86C24.4 12.6208 24.1033 12.5008 23.75 12.5H6.25C5.89583 12.5 5.59917 12.62 5.36 12.86C5.12083 13.1 5.00083 13.3967 5 13.75V18.75H7.5V16.25H22.5V18.75H25Z" fill="black"/>
</svg>
