<svg width="151" height="150" viewBox="0 0 151 150" fill="none" xmlns="http://www.w3.org/2000/svg">
<path d="M75.9697 125C62.0114 125 50.1885 120.156 40.501 110.469C30.8135 100.781 25.9697 88.9583 25.9697 75C25.9697 61.0417 30.8135 49.2188 40.501 39.5312C50.1885 29.8437 62.0114 25 75.9697 25C83.1572 25 90.0322 26.4833 96.5947 29.45C103.157 32.4167 108.782 36.6625 113.47 42.1875V25H125.97V68.75H82.2197V56.25H108.47C105.136 50.4167 100.58 45.8333 94.801 42.5C89.0218 39.1667 82.7447 37.5 75.9697 37.5C65.5531 37.5 56.6989 41.1458 49.4072 48.4375C42.1156 55.7292 38.4697 64.5833 38.4697 75C38.4697 85.4167 42.1156 94.2708 49.4072 101.563C56.6989 108.854 65.5531 112.5 75.9697 112.5C83.9906 112.5 91.2302 110.208 97.6885 105.625C104.147 101.042 108.678 95 111.282 87.5H124.407C121.491 98.5417 115.553 107.552 106.595 114.531C97.6364 121.51 87.4281 125 75.9697 125Z" fill="#404040"/>
</svg>
