<svg width="1536" height="4053" viewBox="0 0 1536 4053" fill="none" xmlns="http://www.w3.org/2000/svg">
<g clip-path="url(#clip0_11_354)">
<g clip-path="url(#clip1_11_354)">
<path d="M257.111 509.01L219.5 587L224.904 589.606L261.318 514.1L298.378 558.942L265.5 617L270.721 619.956L302.47 563.893L363.253 637.44L331 656L178.5 568.25V413.89L257.111 509.01ZM452.266 544.829L419.534 605.056L368.528 634.405L305.635 558.304L375.867 434.285L452.266 544.829ZM472.733 574.444L429.47 599.338L456.088 550.359L472.733 574.444ZM483.5 568.25L477.952 571.441L459.299 544.451L483.5 499.924V568.25ZM372.076 428.801L301.543 553.353L264.187 508.151L331.069 369.467L372.076 428.801ZM483.5 392.75V487.359L455.477 538.921L379.151 428.484L420.062 356.246L483.5 392.75ZM327.146 363.79L259.98 503.062L178.5 404.471V392.75L299.172 323.313L327.146 363.79ZM414.86 353.254L375.361 423.001L334.067 363.251L355.392 319.035L414.86 353.254ZM350.178 316.035L330.144 357.574L304.39 320.311L331 305L350.178 316.035Z" fill="white"/>
</g>
<g clip-path="url(#clip2_11_354)">
<path d="M608.111 509.01L570.5 587L575.904 589.606L612.318 514.1L649.378 558.942L616.5 617L621.721 619.956L653.47 563.893L714.253 637.44L682 656L529.5 568.25V413.89L608.111 509.01ZM803.266 544.829L770.534 605.056L719.528 634.405L656.635 558.304L726.867 434.285L803.266 544.829ZM823.733 574.444L780.47 599.338L807.088 550.359L823.733 574.444ZM834.5 568.25L828.952 571.441L810.299 544.451L834.5 499.924V568.25ZM723.076 428.801L652.543 553.353L615.187 508.151L682.069 369.467L723.076 428.801ZM834.5 392.75V487.359L806.477 538.921L730.151 428.484L771.062 356.246L834.5 392.75ZM678.146 363.79L610.98 503.062L529.5 404.471V392.75L650.172 323.313L678.146 363.79ZM765.86 353.254L726.361 423.001L685.067 363.251L706.392 319.035L765.86 353.254ZM701.178 316.035L681.144 357.574L655.39 320.311L682 305L701.178 316.035Z" fill="white"/>
</g>
<g clip-path="url(#clip3_11_354)">
<path d="M959.111 509.01L921.5 587L926.904 589.606L963.318 514.1L1000.38 558.942L967.5 617L972.721 619.956L1004.47 563.893L1065.25 637.44L1033 656L880.5 568.25V413.89L959.111 509.01ZM1154.27 544.829L1121.53 605.056L1070.53 634.405L1007.63 558.304L1077.87 434.285L1154.27 544.829ZM1174.73 574.444L1131.47 599.338L1158.09 550.359L1174.73 574.444ZM1185.5 568.25L1179.95 571.441L1161.3 544.451L1185.5 499.924V568.25ZM1074.08 428.801L1003.54 553.353L966.187 508.151L1033.07 369.467L1074.08 428.801ZM1185.5 392.75V487.359L1157.48 538.921L1081.15 428.484L1122.06 356.246L1185.5 392.75ZM1029.15 363.79L961.98 503.062L880.5 404.471V392.75L1001.17 323.313L1029.15 363.79ZM1116.86 353.254L1077.36 423.001L1036.07 363.251L1057.39 319.035L1116.86 353.254ZM1052.18 316.035L1032.14 357.574L1006.39 320.311L1033 305L1052.18 316.035Z" fill="white"/>
</g>
<g clip-path="url(#clip4_11_354)">
<path d="M1310.11 509.01L1272.5 587L1277.9 589.606L1314.32 514.1L1351.38 558.942L1318.5 617L1323.72 619.956L1355.47 563.893L1416.25 637.44L1384 656L1231.5 568.25V413.89L1310.11 509.01ZM1505.27 544.829L1472.53 605.056L1421.53 634.405L1358.63 558.304L1428.87 434.285L1505.27 544.829ZM1525.73 574.444L1482.47 599.338L1509.09 550.359L1525.73 574.444ZM1536.5 568.25L1530.95 571.441L1512.3 544.451L1536.5 499.924V568.25ZM1425.08 428.801L1354.54 553.353L1317.19 508.151L1384.07 369.467L1425.08 428.801ZM1536.5 392.75V487.359L1508.48 538.921L1432.15 428.484L1473.06 356.246L1536.5 392.75ZM1380.15 363.79L1312.98 503.062L1231.5 404.471V392.75L1352.17 323.313L1380.15 363.79ZM1467.86 353.254L1428.36 423.001L1387.07 363.251L1408.39 319.035L1467.86 353.254ZM1403.18 316.035L1383.14 357.574L1357.39 320.311L1384 305L1403.18 316.035Z" fill="white"/>
</g>
<g clip-path="url(#clip5_11_354)">
<path d="M257.111 1126.01L219.5 1204L224.904 1206.61L261.318 1131.1L298.378 1175.94L265.5 1234L270.721 1236.96L302.47 1180.89L363.253 1254.44L331 1273L178.5 1185.25V1030.89L257.111 1126.01ZM452.266 1161.83L419.534 1222.06L368.528 1251.41L305.635 1175.3L375.867 1051.29L452.266 1161.83ZM472.733 1191.44L429.47 1216.34L456.088 1167.36L472.733 1191.44ZM483.5 1185.25L477.952 1188.44L459.299 1161.45L483.5 1116.92V1185.25ZM372.076 1045.8L301.543 1170.35L264.187 1125.15L331.069 986.467L372.076 1045.8ZM483.5 1009.75V1104.36L455.477 1155.92L379.151 1045.48L420.062 973.246L483.5 1009.75ZM327.146 980.79L259.98 1120.06L178.5 1021.47V1009.75L299.172 940.313L327.146 980.79ZM414.86 970.254L375.361 1040L334.067 980.251L355.392 936.035L414.86 970.254ZM350.178 933.035L330.144 974.574L304.39 937.311L331 922L350.178 933.035Z" fill="white"/>
</g>
<g clip-path="url(#clip6_11_354)">
<path d="M608.111 1126.01L570.5 1204L575.904 1206.61L612.318 1131.1L649.378 1175.94L616.5 1234L621.721 1236.96L653.47 1180.89L714.253 1254.44L682 1273L529.5 1185.25V1030.89L608.111 1126.01ZM803.266 1161.83L770.534 1222.06L719.528 1251.41L656.635 1175.3L726.867 1051.29L803.266 1161.83ZM823.733 1191.44L780.47 1216.34L807.088 1167.36L823.733 1191.44ZM834.5 1185.25L828.952 1188.44L810.299 1161.45L834.5 1116.92V1185.25ZM723.076 1045.8L652.543 1170.35L615.187 1125.15L682.069 986.467L723.076 1045.8ZM834.5 1009.75V1104.36L806.477 1155.92L730.151 1045.48L771.062 973.246L834.5 1009.75ZM678.146 980.79L610.98 1120.06L529.5 1021.47V1009.75L650.172 940.313L678.146 980.79ZM765.86 970.254L726.361 1040L685.067 980.251L706.392 936.035L765.86 970.254ZM701.178 933.035L681.144 974.574L655.39 937.311L682 922L701.178 933.035Z" fill="white"/>
</g>
<g clip-path="url(#clip7_11_354)">
<path d="M959.111 1126.01L921.5 1204L926.904 1206.61L963.318 1131.1L1000.38 1175.94L967.5 1234L972.721 1236.96L1004.47 1180.89L1065.25 1254.44L1033 1273L880.5 1185.25V1030.89L959.111 1126.01ZM1154.27 1161.83L1121.53 1222.06L1070.53 1251.41L1007.63 1175.3L1077.87 1051.29L1154.27 1161.83ZM1174.73 1191.44L1131.47 1216.34L1158.09 1167.36L1174.73 1191.44ZM1185.5 1185.25L1179.95 1188.44L1161.3 1161.45L1185.5 1116.92V1185.25ZM1074.08 1045.8L1003.54 1170.35L966.187 1125.15L1033.07 986.467L1074.08 1045.8ZM1185.5 1009.75V1104.36L1157.48 1155.92L1081.15 1045.48L1122.06 973.246L1185.5 1009.75ZM1029.15 980.79L961.98 1120.06L880.5 1021.47V1009.75L1001.17 940.313L1029.15 980.79ZM1116.86 970.254L1077.36 1040L1036.07 980.251L1057.39 936.035L1116.86 970.254ZM1052.18 933.035L1032.14 974.574L1006.39 937.311L1033 922L1052.18 933.035Z" fill="white"/>
</g>
<g clip-path="url(#clip8_11_354)">
<path d="M1310.11 1126.01L1272.5 1204L1277.9 1206.61L1314.32 1131.1L1351.38 1175.94L1318.5 1234L1323.72 1236.96L1355.47 1180.89L1416.25 1254.44L1384 1273L1231.5 1185.25V1030.89L1310.11 1126.01ZM1505.27 1161.83L1472.53 1222.06L1421.53 1251.41L1358.63 1175.3L1428.87 1051.29L1505.27 1161.83ZM1525.73 1191.44L1482.47 1216.34L1509.09 1167.36L1525.73 1191.44ZM1536.5 1185.25L1530.95 1188.44L1512.3 1161.45L1536.5 1116.92V1185.25ZM1425.08 1045.8L1354.54 1170.35L1317.19 1125.15L1384.07 986.467L1425.08 1045.8ZM1536.5 1009.75V1104.36L1508.48 1155.92L1432.15 1045.48L1473.06 973.246L1536.5 1009.75ZM1380.15 980.79L1312.98 1120.06L1231.5 1021.47V1009.75L1352.17 940.313L1380.15 980.79ZM1467.86 970.254L1428.36 1040L1387.07 980.251L1408.39 936.035L1467.86 970.254ZM1403.18 933.035L1383.14 974.574L1357.39 937.311L1384 922L1403.18 933.035Z" fill="white"/>
</g>
<g clip-path="url(#clip9_11_354)">
<path d="M257.111 1743.01L219.5 1821L224.904 1823.61L261.318 1748.1L298.378 1792.94L265.5 1851L270.721 1853.96L302.47 1797.89L363.253 1871.44L331 1890L178.5 1802.25V1647.89L257.111 1743.01ZM452.266 1778.83L419.534 1839.06L368.528 1868.41L305.635 1792.3L375.867 1668.29L452.266 1778.83ZM472.733 1808.44L429.47 1833.34L456.088 1784.36L472.733 1808.44ZM483.5 1802.25L477.952 1805.44L459.299 1778.45L483.5 1733.92V1802.25ZM372.076 1662.8L301.543 1787.35L264.187 1742.15L331.069 1603.47L372.076 1662.8ZM483.5 1626.75V1721.36L455.477 1772.92L379.151 1662.48L420.062 1590.25L483.5 1626.75ZM327.146 1597.79L259.98 1737.06L178.5 1638.47V1626.75L299.172 1557.31L327.146 1597.79ZM414.86 1587.25L375.361 1657L334.067 1597.25L355.392 1553.04L414.86 1587.25ZM350.178 1550.04L330.144 1591.57L304.39 1554.31L331 1539L350.178 1550.04Z" fill="white"/>
</g>
<g clip-path="url(#clip10_11_354)">
<path d="M608.111 1743.01L570.5 1821L575.904 1823.61L612.318 1748.1L649.378 1792.94L616.5 1851L621.721 1853.96L653.47 1797.89L714.253 1871.44L682 1890L529.5 1802.25V1647.89L608.111 1743.01ZM803.266 1778.83L770.534 1839.06L719.528 1868.41L656.635 1792.3L726.867 1668.29L803.266 1778.83ZM823.733 1808.44L780.47 1833.34L807.088 1784.36L823.733 1808.44ZM834.5 1802.25L828.952 1805.44L810.299 1778.45L834.5 1733.92V1802.25ZM723.076 1662.8L652.543 1787.35L615.187 1742.15L682.069 1603.47L723.076 1662.8ZM834.5 1626.75V1721.36L806.477 1772.92L730.151 1662.48L771.062 1590.25L834.5 1626.75ZM678.146 1597.79L610.98 1737.06L529.5 1638.47V1626.75L650.172 1557.31L678.146 1597.79ZM765.86 1587.25L726.361 1657L685.067 1597.25L706.392 1553.04L765.86 1587.25ZM701.178 1550.04L681.144 1591.57L655.39 1554.31L682 1539L701.178 1550.04Z" fill="white"/>
</g>
<g clip-path="url(#clip11_11_354)">
<path d="M959.111 1743.01L921.5 1821L926.904 1823.61L963.318 1748.1L1000.38 1792.94L967.5 1851L972.721 1853.96L1004.47 1797.89L1065.25 1871.44L1033 1890L880.5 1802.25V1647.89L959.111 1743.01ZM1154.27 1778.83L1121.53 1839.06L1070.53 1868.41L1007.63 1792.3L1077.87 1668.29L1154.27 1778.83ZM1174.73 1808.44L1131.47 1833.34L1158.09 1784.36L1174.73 1808.44ZM1185.5 1802.25L1179.95 1805.44L1161.3 1778.45L1185.5 1733.92V1802.25ZM1074.08 1662.8L1003.54 1787.35L966.187 1742.15L1033.07 1603.47L1074.08 1662.8ZM1185.5 1626.75V1721.36L1157.48 1772.92L1081.15 1662.48L1122.06 1590.25L1185.5 1626.75ZM1029.15 1597.79L961.98 1737.06L880.5 1638.47V1626.75L1001.17 1557.31L1029.15 1597.79ZM1116.86 1587.25L1077.36 1657L1036.07 1597.25L1057.39 1553.04L1116.86 1587.25ZM1052.18 1550.04L1032.14 1591.57L1006.39 1554.31L1033 1539L1052.18 1550.04Z" fill="white"/>
</g>
<g clip-path="url(#clip12_11_354)">
<path d="M1310.11 1743.01L1272.5 1821L1277.9 1823.61L1314.32 1748.1L1351.38 1792.94L1318.5 1851L1323.72 1853.96L1355.47 1797.89L1416.25 1871.44L1384 1890L1231.5 1802.25V1647.89L1310.11 1743.01ZM1505.27 1778.83L1472.53 1839.06L1421.53 1868.41L1358.63 1792.3L1428.87 1668.29L1505.27 1778.83ZM1525.73 1808.44L1482.47 1833.34L1509.09 1784.36L1525.73 1808.44ZM1536.5 1802.25L1530.95 1805.44L1512.3 1778.45L1536.5 1733.92V1802.25ZM1425.08 1662.8L1354.54 1787.35L1317.19 1742.15L1384.07 1603.47L1425.08 1662.8ZM1536.5 1626.75V1721.36L1508.48 1772.92L1432.15 1662.48L1473.06 1590.25L1536.5 1626.75ZM1380.15 1597.79L1312.98 1737.06L1231.5 1638.47V1626.75L1352.17 1557.31L1380.15 1597.79ZM1467.86 1587.25L1428.36 1657L1387.07 1597.25L1408.39 1553.04L1467.86 1587.25ZM1403.18 1550.04L1383.14 1591.57L1357.39 1554.31L1384 1539L1403.18 1550.04Z" fill="white"/>
</g>
<g clip-path="url(#clip13_11_354)">
<path d="M257.111 2360.01L219.5 2438L224.904 2440.61L261.318 2365.1L298.378 2409.94L265.5 2468L270.721 2470.96L302.47 2414.89L363.253 2488.44L331 2507L178.5 2419.25V2264.89L257.111 2360.01ZM452.266 2395.83L419.534 2456.06L368.528 2485.41L305.635 2409.3L375.867 2285.29L452.266 2395.83ZM472.733 2425.44L429.47 2450.34L456.088 2401.36L472.733 2425.44ZM483.5 2419.25L477.952 2422.44L459.299 2395.45L483.5 2350.92V2419.25ZM372.076 2279.8L301.543 2404.35L264.187 2359.15L331.069 2220.47L372.076 2279.8ZM483.5 2243.75V2338.36L455.477 2389.92L379.151 2279.48L420.062 2207.25L483.5 2243.75ZM327.146 2214.79L259.98 2354.06L178.5 2255.47V2243.75L299.172 2174.31L327.146 2214.79ZM414.86 2204.25L375.361 2274L334.067 2214.25L355.392 2170.04L414.86 2204.25ZM350.178 2167.04L330.144 2208.57L304.39 2171.31L331 2156L350.178 2167.04Z" fill="white"/>
</g>
<g clip-path="url(#clip14_11_354)">
<path d="M608.111 2360.01L570.5 2438L575.904 2440.61L612.318 2365.1L649.378 2409.94L616.5 2468L621.721 2470.96L653.47 2414.89L714.253 2488.44L682 2507L529.5 2419.25V2264.89L608.111 2360.01ZM803.266 2395.83L770.534 2456.06L719.528 2485.41L656.635 2409.3L726.867 2285.29L803.266 2395.83ZM823.733 2425.44L780.47 2450.34L807.088 2401.36L823.733 2425.44ZM834.5 2419.25L828.952 2422.44L810.299 2395.45L834.5 2350.92V2419.25ZM723.076 2279.8L652.543 2404.35L615.187 2359.15L682.069 2220.47L723.076 2279.8ZM834.5 2243.75V2338.36L806.477 2389.92L730.151 2279.48L771.062 2207.25L834.5 2243.75ZM678.146 2214.79L610.98 2354.06L529.5 2255.47V2243.75L650.172 2174.31L678.146 2214.79ZM765.86 2204.25L726.361 2274L685.067 2214.25L706.392 2170.04L765.86 2204.25ZM701.178 2167.04L681.144 2208.57L655.39 2171.31L682 2156L701.178 2167.04Z" fill="white"/>
</g>
<g clip-path="url(#clip15_11_354)">
<path d="M959.111 2360.01L921.5 2438L926.904 2440.61L963.318 2365.1L1000.38 2409.94L967.5 2468L972.721 2470.96L1004.47 2414.89L1065.25 2488.44L1033 2507L880.5 2419.25V2264.89L959.111 2360.01ZM1154.27 2395.83L1121.53 2456.06L1070.53 2485.41L1007.63 2409.3L1077.87 2285.29L1154.27 2395.83ZM1174.73 2425.44L1131.47 2450.34L1158.09 2401.36L1174.73 2425.44ZM1185.5 2419.25L1179.95 2422.44L1161.3 2395.45L1185.5 2350.92V2419.25ZM1074.08 2279.8L1003.54 2404.35L966.187 2359.15L1033.07 2220.47L1074.08 2279.8ZM1185.5 2243.75V2338.36L1157.48 2389.92L1081.15 2279.48L1122.06 2207.25L1185.5 2243.75ZM1029.15 2214.79L961.98 2354.06L880.5 2255.47V2243.75L1001.17 2174.31L1029.15 2214.79ZM1116.86 2204.25L1077.36 2274L1036.07 2214.25L1057.39 2170.04L1116.86 2204.25ZM1052.18 2167.04L1032.14 2208.57L1006.39 2171.31L1033 2156L1052.18 2167.04Z" fill="white"/>
</g>
<g clip-path="url(#clip16_11_354)">
<path d="M1310.11 2360.01L1272.5 2438L1277.9 2440.61L1314.32 2365.1L1351.38 2409.94L1318.5 2468L1323.72 2470.96L1355.47 2414.89L1416.25 2488.44L1384 2507L1231.5 2419.25V2264.89L1310.11 2360.01ZM1505.27 2395.83L1472.53 2456.06L1421.53 2485.41L1358.63 2409.3L1428.87 2285.29L1505.27 2395.83ZM1525.73 2425.44L1482.47 2450.34L1509.09 2401.36L1525.73 2425.44ZM1536.5 2419.25L1530.95 2422.44L1512.3 2395.45L1536.5 2350.92V2419.25ZM1425.08 2279.8L1354.54 2404.35L1317.19 2359.15L1384.07 2220.47L1425.08 2279.8ZM1536.5 2243.75V2338.36L1508.48 2389.92L1432.15 2279.48L1473.06 2207.25L1536.5 2243.75ZM1380.15 2214.79L1312.98 2354.06L1231.5 2255.47V2243.75L1352.17 2174.31L1380.15 2214.79ZM1467.86 2204.25L1428.36 2274L1387.07 2214.25L1408.39 2170.04L1467.86 2204.25ZM1403.18 2167.04L1383.14 2208.57L1357.39 2171.31L1384 2156L1403.18 2167.04Z" fill="white"/>
</g>
<g clip-path="url(#clip17_11_354)">
<path d="M257.111 2977.01L219.5 3055L224.904 3057.61L261.318 2982.1L298.378 3026.94L265.5 3085L270.721 3087.96L302.47 3031.89L363.253 3105.44L331 3124L178.5 3036.25V2881.89L257.111 2977.01ZM452.266 3012.83L419.534 3073.06L368.528 3102.41L305.635 3026.3L375.867 2902.29L452.266 3012.83ZM472.733 3042.44L429.47 3067.34L456.088 3018.36L472.733 3042.44ZM483.5 3036.25L477.952 3039.44L459.299 3012.45L483.5 2967.92V3036.25ZM372.076 2896.8L301.543 3021.35L264.187 2976.15L331.069 2837.47L372.076 2896.8ZM483.5 2860.75V2955.36L455.477 3006.92L379.151 2896.48L420.062 2824.25L483.5 2860.75ZM327.146 2831.79L259.98 2971.06L178.5 2872.47V2860.75L299.172 2791.31L327.146 2831.79ZM414.86 2821.25L375.361 2891L334.067 2831.25L355.392 2787.04L414.86 2821.25ZM350.178 2784.04L330.144 2825.57L304.39 2788.31L331 2773L350.178 2784.04Z" fill="white"/>
</g>
<g clip-path="url(#clip18_11_354)">
<path d="M608.111 2977.01L570.5 3055L575.904 3057.61L612.318 2982.1L649.378 3026.94L616.5 3085L621.721 3087.96L653.47 3031.89L714.253 3105.44L682 3124L529.5 3036.25V2881.89L608.111 2977.01ZM803.266 3012.83L770.534 3073.06L719.528 3102.41L656.635 3026.3L726.867 2902.29L803.266 3012.83ZM823.733 3042.44L780.47 3067.34L807.088 3018.36L823.733 3042.44ZM834.5 3036.25L828.952 3039.44L810.299 3012.45L834.5 2967.92V3036.25ZM723.076 2896.8L652.543 3021.35L615.187 2976.15L682.069 2837.47L723.076 2896.8ZM834.5 2860.75V2955.36L806.477 3006.92L730.151 2896.48L771.062 2824.25L834.5 2860.75ZM678.146 2831.79L610.98 2971.06L529.5 2872.47V2860.75L650.172 2791.31L678.146 2831.79ZM765.86 2821.25L726.361 2891L685.067 2831.25L706.392 2787.04L765.86 2821.25ZM701.178 2784.04L681.144 2825.57L655.39 2788.31L682 2773L701.178 2784.04Z" fill="white"/>
</g>
<g clip-path="url(#clip19_11_354)">
<path d="M959.111 2977.01L921.5 3055L926.904 3057.61L963.318 2982.1L1000.38 3026.94L967.5 3085L972.721 3087.96L1004.47 3031.89L1065.25 3105.44L1033 3124L880.5 3036.25V2881.89L959.111 2977.01ZM1154.27 3012.83L1121.53 3073.06L1070.53 3102.41L1007.63 3026.3L1077.87 2902.29L1154.27 3012.83ZM1174.73 3042.44L1131.47 3067.34L1158.09 3018.36L1174.73 3042.44ZM1185.5 3036.25L1179.95 3039.44L1161.3 3012.45L1185.5 2967.92V3036.25ZM1074.08 2896.8L1003.54 3021.35L966.187 2976.15L1033.07 2837.47L1074.08 2896.8ZM1185.5 2860.75V2955.36L1157.48 3006.92L1081.15 2896.48L1122.06 2824.25L1185.5 2860.75ZM1029.15 2831.79L961.98 2971.06L880.5 2872.47V2860.75L1001.17 2791.31L1029.15 2831.79ZM1116.86 2821.25L1077.36 2891L1036.07 2831.25L1057.39 2787.04L1116.86 2821.25ZM1052.18 2784.04L1032.14 2825.57L1006.39 2788.31L1033 2773L1052.18 2784.04Z" fill="white"/>
</g>
<g clip-path="url(#clip20_11_354)">
<path d="M1310.11 2977.01L1272.5 3055L1277.9 3057.61L1314.32 2982.1L1351.38 3026.94L1318.5 3085L1323.72 3087.96L1355.47 3031.89L1416.25 3105.44L1384 3124L1231.5 3036.25V2881.89L1310.11 2977.01ZM1505.27 3012.83L1472.53 3073.06L1421.53 3102.41L1358.63 3026.3L1428.87 2902.29L1505.27 3012.83ZM1525.73 3042.44L1482.47 3067.34L1509.09 3018.36L1525.73 3042.44ZM1536.5 3036.25L1530.95 3039.44L1512.3 3012.45L1536.5 2967.92V3036.25ZM1425.08 2896.8L1354.54 3021.35L1317.19 2976.15L1384.07 2837.47L1425.08 2896.8ZM1536.5 2860.75V2955.36L1508.48 3006.92L1432.15 2896.48L1473.06 2824.25L1536.5 2860.75ZM1380.15 2831.79L1312.98 2971.06L1231.5 2872.47V2860.75L1352.17 2791.31L1380.15 2831.79ZM1467.86 2821.25L1428.36 2891L1387.07 2831.25L1408.39 2787.04L1467.86 2821.25ZM1403.18 2784.04L1383.14 2825.57L1357.39 2788.31L1384 2773L1403.18 2784.04Z" fill="white"/>
</g>
<g clip-path="url(#clip21_11_354)">
<path d="M257.111 3594.01L219.5 3672L224.904 3674.61L261.318 3599.1L298.378 3643.94L265.5 3702L270.721 3704.96L302.47 3648.89L363.253 3722.44L331 3741L178.5 3653.25V3498.89L257.111 3594.01ZM452.266 3629.83L419.534 3690.06L368.528 3719.41L305.635 3643.3L375.867 3519.29L452.266 3629.83ZM472.733 3659.44L429.47 3684.34L456.088 3635.36L472.733 3659.44ZM483.5 3653.25L477.952 3656.44L459.299 3629.45L483.5 3584.92V3653.25ZM372.076 3513.8L301.543 3638.35L264.187 3593.15L331.069 3454.47L372.076 3513.8ZM483.5 3477.75V3572.36L455.477 3623.92L379.151 3513.48L420.062 3441.25L483.5 3477.75ZM327.146 3448.79L259.98 3588.06L178.5 3489.47V3477.75L299.172 3408.31L327.146 3448.79ZM414.86 3438.25L375.361 3508L334.067 3448.25L355.392 3404.04L414.86 3438.25ZM350.178 3401.04L330.144 3442.57L304.39 3405.31L331 3390L350.178 3401.04Z" fill="white"/>
</g>
<g clip-path="url(#clip22_11_354)">
<path d="M608.111 3594.01L570.5 3672L575.904 3674.61L612.318 3599.1L649.378 3643.94L616.5 3702L621.721 3704.96L653.47 3648.89L714.253 3722.44L682 3741L529.5 3653.25V3498.89L608.111 3594.01ZM803.266 3629.83L770.534 3690.06L719.528 3719.41L656.635 3643.3L726.867 3519.29L803.266 3629.83ZM823.733 3659.44L780.47 3684.34L807.088 3635.36L823.733 3659.44ZM834.5 3653.25L828.952 3656.44L810.299 3629.45L834.5 3584.92V3653.25ZM723.076 3513.8L652.543 3638.35L615.187 3593.15L682.069 3454.47L723.076 3513.8ZM834.5 3477.75V3572.36L806.477 3623.92L730.151 3513.48L771.062 3441.25L834.5 3477.75ZM678.146 3448.79L610.98 3588.06L529.5 3489.47V3477.75L650.172 3408.31L678.146 3448.79ZM765.86 3438.25L726.361 3508L685.067 3448.25L706.392 3404.04L765.86 3438.25ZM701.178 3401.04L681.144 3442.57L655.39 3405.31L682 3390L701.178 3401.04Z" fill="white"/>
</g>
<g clip-path="url(#clip23_11_354)">
<path d="M959.111 3594.01L921.5 3672L926.904 3674.61L963.318 3599.1L1000.38 3643.94L967.5 3702L972.721 3704.96L1004.47 3648.89L1065.25 3722.44L1033 3741L880.5 3653.25V3498.89L959.111 3594.01ZM1154.27 3629.83L1121.53 3690.06L1070.53 3719.41L1007.63 3643.3L1077.87 3519.29L1154.27 3629.83ZM1174.73 3659.44L1131.47 3684.34L1158.09 3635.36L1174.73 3659.44ZM1185.5 3653.25L1179.95 3656.44L1161.3 3629.45L1185.5 3584.92V3653.25ZM1074.08 3513.8L1003.54 3638.35L966.187 3593.15L1033.07 3454.47L1074.08 3513.8ZM1185.5 3477.75V3572.36L1157.48 3623.92L1081.15 3513.48L1122.06 3441.25L1185.5 3477.75ZM1029.15 3448.79L961.98 3588.06L880.5 3489.47V3477.75L1001.17 3408.31L1029.15 3448.79ZM1116.86 3438.25L1077.36 3508L1036.07 3448.25L1057.39 3404.04L1116.86 3438.25ZM1052.18 3401.04L1032.14 3442.57L1006.39 3405.31L1033 3390L1052.18 3401.04Z" fill="white"/>
</g>
<g clip-path="url(#clip24_11_354)">
<path d="M1310.11 3594.01L1272.5 3672L1277.9 3674.61L1314.32 3599.1L1351.38 3643.94L1318.5 3702L1323.72 3704.96L1355.47 3648.89L1416.25 3722.44L1384 3741L1231.5 3653.25V3498.89L1310.11 3594.01ZM1505.27 3629.83L1472.53 3690.06L1421.53 3719.41L1358.63 3643.3L1428.87 3519.29L1505.27 3629.83ZM1525.73 3659.44L1482.47 3684.34L1509.09 3635.36L1525.73 3659.44ZM1536.5 3653.25L1530.95 3656.44L1512.3 3629.45L1536.5 3584.92V3653.25ZM1425.08 3513.8L1354.54 3638.35L1317.19 3593.15L1384.07 3454.47L1425.08 3513.8ZM1536.5 3477.75V3572.36L1508.48 3623.92L1432.15 3513.48L1473.06 3441.25L1536.5 3477.75ZM1380.15 3448.79L1312.98 3588.06L1231.5 3489.47V3477.75L1352.17 3408.31L1380.15 3448.79ZM1467.86 3438.25L1428.36 3508L1387.07 3448.25L1408.39 3404.04L1467.86 3438.25ZM1403.18 3401.04L1383.14 3442.57L1357.39 3405.31L1384 3390L1403.18 3401.04Z" fill="white"/>
</g>
<g clip-path="url(#clip25_11_354)">
<path d="M82.1113 204.01L44.5 282L49.9043 284.606L86.3184 209.1L123.378 253.942L90.5 312L95.7207 314.956L127.47 258.893L188.253 332.44L156 351L3.5 263.25V108.89L82.1113 204.01ZM277.266 239.829L244.534 300.056L193.528 329.405L130.635 253.304L200.867 129.285L277.266 239.829ZM297.733 269.444L254.47 294.338L281.088 245.359L297.733 269.444ZM308.5 263.25L302.952 266.441L284.299 239.451L308.5 194.924V263.25ZM197.076 123.801L126.543 248.353L89.1865 203.151L156.069 64.4668L197.076 123.801ZM308.5 87.75V182.359L280.477 233.921L204.151 123.484L245.062 51.2461L308.5 87.75ZM152.146 58.79L84.9805 198.062L3.5 99.4707V87.75L124.172 18.3135L152.146 58.79ZM239.86 48.2539L200.361 118.001L159.067 58.251L180.392 14.0352L239.86 48.2539ZM175.178 11.0352L155.144 52.5742L129.39 15.3105L156 0L175.178 11.0352Z" fill="white"/>
</g>
<g clip-path="url(#clip26_11_354)">
<path d="M433.111 204.01L395.5 282L400.904 284.606L437.318 209.1L474.378 253.942L441.5 312L446.721 314.956L478.47 258.893L539.253 332.44L507 351L354.5 263.25V108.89L433.111 204.01ZM628.266 239.829L595.534 300.056L544.528 329.405L481.635 253.304L551.867 129.285L628.266 239.829ZM648.733 269.444L605.47 294.338L632.088 245.359L648.733 269.444ZM659.5 263.25L653.952 266.441L635.299 239.451L659.5 194.924V263.25ZM548.076 123.801L477.543 248.353L440.187 203.151L507.069 64.4668L548.076 123.801ZM659.5 87.75V182.359L631.477 233.921L555.151 123.484L596.062 51.2461L659.5 87.75ZM503.146 58.79L435.98 198.062L354.5 99.4707V87.75L475.172 18.3135L503.146 58.79ZM590.86 48.2539L551.361 118.001L510.067 58.251L531.392 14.0352L590.86 48.2539ZM526.178 11.0352L506.144 52.5742L480.39 15.3105L507 0L526.178 11.0352Z" fill="white"/>
</g>
<g clip-path="url(#clip27_11_354)">
<path d="M784.111 204.01L746.5 282L751.904 284.606L788.318 209.1L825.378 253.942L792.5 312L797.721 314.956L829.47 258.893L890.253 332.44L858 351L705.5 263.25V108.89L784.111 204.01ZM979.266 239.829L946.534 300.056L895.528 329.405L832.635 253.304L902.867 129.285L979.266 239.829ZM999.733 269.444L956.47 294.338L983.088 245.359L999.733 269.444ZM1010.5 263.25L1004.95 266.441L986.299 239.451L1010.5 194.924V263.25ZM899.076 123.801L828.543 248.353L791.187 203.151L858.069 64.4668L899.076 123.801ZM1010.5 87.75V182.359L982.477 233.921L906.151 123.484L947.062 51.2461L1010.5 87.75ZM854.146 58.79L786.98 198.062L705.5 99.4707V87.75L826.172 18.3135L854.146 58.79ZM941.86 48.2539L902.361 118.001L861.067 58.251L882.392 14.0352L941.86 48.2539ZM877.178 11.0352L857.144 52.5742L831.39 15.3105L858 0L877.178 11.0352Z" fill="white"/>
</g>
<g clip-path="url(#clip28_11_354)">
<path d="M1135.11 204.01L1097.5 282L1102.9 284.606L1139.32 209.1L1176.38 253.942L1143.5 312L1148.72 314.956L1180.47 258.893L1241.25 332.44L1209 351L1056.5 263.25V108.89L1135.11 204.01ZM1330.27 239.829L1297.53 300.056L1246.53 329.405L1183.63 253.304L1253.87 129.285L1330.27 239.829ZM1350.73 269.444L1307.47 294.338L1334.09 245.359L1350.73 269.444ZM1361.5 263.25L1355.95 266.441L1337.3 239.451L1361.5 194.924V263.25ZM1250.08 123.801L1179.54 248.353L1142.19 203.151L1209.07 64.4668L1250.08 123.801ZM1361.5 87.75V182.359L1333.48 233.921L1257.15 123.484L1298.06 51.2461L1361.5 87.75ZM1205.15 58.79L1137.98 198.062L1056.5 99.4707V87.75L1177.17 18.3135L1205.15 58.79ZM1292.86 48.2539L1253.36 118.001L1212.07 58.251L1233.39 14.0352L1292.86 48.2539ZM1228.18 11.0352L1208.14 52.5742L1182.39 15.3105L1209 0L1228.18 11.0352Z" fill="white"/>
</g>
<g clip-path="url(#clip29_11_354)">
<path d="M82.1113 821.01L44.5 899L49.9043 901.606L86.3184 826.1L123.378 870.942L90.5 929L95.7207 931.956L127.47 875.893L188.253 949.44L156 968L3.5 880.25V725.89L82.1113 821.01ZM277.266 856.829L244.534 917.056L193.528 946.405L130.635 870.304L200.867 746.285L277.266 856.829ZM297.733 886.444L254.47 911.338L281.088 862.359L297.733 886.444ZM308.5 880.25L302.952 883.441L284.299 856.451L308.5 811.924V880.25ZM197.076 740.801L126.543 865.353L89.1865 820.151L156.069 681.467L197.076 740.801ZM308.5 704.75V799.359L280.477 850.921L204.151 740.484L245.062 668.246L308.5 704.75ZM152.146 675.79L84.9805 815.062L3.5 716.471V704.75L124.172 635.313L152.146 675.79ZM239.86 665.254L200.361 735.001L159.067 675.251L180.392 631.035L239.86 665.254ZM175.178 628.035L155.144 669.574L129.39 632.311L156 617L175.178 628.035Z" fill="white"/>
</g>
<g clip-path="url(#clip30_11_354)">
<path d="M433.111 821.01L395.5 899L400.904 901.606L437.318 826.1L474.378 870.942L441.5 929L446.721 931.956L478.47 875.893L539.253 949.44L507 968L354.5 880.25V725.89L433.111 821.01ZM628.266 856.829L595.534 917.056L544.528 946.405L481.635 870.304L551.867 746.285L628.266 856.829ZM648.733 886.444L605.47 911.338L632.088 862.359L648.733 886.444ZM659.5 880.25L653.952 883.441L635.299 856.451L659.5 811.924V880.25ZM548.076 740.801L477.543 865.353L440.187 820.151L507.069 681.467L548.076 740.801ZM659.5 704.75V799.359L631.477 850.921L555.151 740.484L596.062 668.246L659.5 704.75ZM503.146 675.79L435.98 815.062L354.5 716.471V704.75L475.172 635.313L503.146 675.79ZM590.86 665.254L551.361 735.001L510.067 675.251L531.392 631.035L590.86 665.254ZM526.178 628.035L506.144 669.574L480.39 632.311L507 617L526.178 628.035Z" fill="white"/>
</g>
<g clip-path="url(#clip31_11_354)">
<path d="M784.111 821.01L746.5 899L751.904 901.606L788.318 826.1L825.378 870.942L792.5 929L797.721 931.956L829.47 875.893L890.253 949.44L858 968L705.5 880.25V725.89L784.111 821.01ZM979.266 856.829L946.534 917.056L895.528 946.405L832.635 870.304L902.867 746.285L979.266 856.829ZM999.733 886.444L956.47 911.338L983.088 862.359L999.733 886.444ZM1010.5 880.25L1004.95 883.441L986.299 856.451L1010.5 811.924V880.25ZM899.076 740.801L828.543 865.353L791.187 820.151L858.069 681.467L899.076 740.801ZM1010.5 704.75V799.359L982.477 850.921L906.151 740.484L947.062 668.246L1010.5 704.75ZM854.146 675.79L786.98 815.062L705.5 716.471V704.75L826.172 635.313L854.146 675.79ZM941.86 665.254L902.361 735.001L861.067 675.251L882.392 631.035L941.86 665.254ZM877.178 628.035L857.144 669.574L831.39 632.311L858 617L877.178 628.035Z" fill="white"/>
</g>
<g clip-path="url(#clip32_11_354)">
<path d="M1135.11 821.01L1097.5 899L1102.9 901.606L1139.32 826.1L1176.38 870.942L1143.5 929L1148.72 931.956L1180.47 875.893L1241.25 949.44L1209 968L1056.5 880.25V725.89L1135.11 821.01ZM1330.27 856.829L1297.53 917.056L1246.53 946.405L1183.63 870.304L1253.87 746.285L1330.27 856.829ZM1350.73 886.444L1307.47 911.338L1334.09 862.359L1350.73 886.444ZM1361.5 880.25L1355.95 883.441L1337.3 856.451L1361.5 811.924V880.25ZM1250.08 740.801L1179.54 865.353L1142.19 820.151L1209.07 681.467L1250.08 740.801ZM1361.5 704.75V799.359L1333.48 850.921L1257.15 740.484L1298.06 668.246L1361.5 704.75ZM1205.15 675.79L1137.98 815.062L1056.5 716.471V704.75L1177.17 635.313L1205.15 675.79ZM1292.86 665.254L1253.36 735.001L1212.07 675.251L1233.39 631.035L1292.86 665.254ZM1228.18 628.035L1208.14 669.574L1182.39 632.311L1209 617L1228.18 628.035Z" fill="white"/>
</g>
<g clip-path="url(#clip33_11_354)">
<path d="M82.1113 1438.01L44.5 1516L49.9043 1518.61L86.3184 1443.1L123.378 1487.94L90.5 1546L95.7207 1548.96L127.47 1492.89L188.253 1566.44L156 1585L3.5 1497.25V1342.89L82.1113 1438.01ZM277.266 1473.83L244.534 1534.06L193.528 1563.41L130.635 1487.3L200.867 1363.29L277.266 1473.83ZM297.733 1503.44L254.47 1528.34L281.088 1479.36L297.733 1503.44ZM308.5 1497.25L302.952 1500.44L284.299 1473.45L308.5 1428.92V1497.25ZM197.076 1357.8L126.543 1482.35L89.1865 1437.15L156.069 1298.47L197.076 1357.8ZM308.5 1321.75V1416.36L280.477 1467.92L204.151 1357.48L245.062 1285.25L308.5 1321.75ZM152.146 1292.79L84.9805 1432.06L3.5 1333.47V1321.75L124.172 1252.31L152.146 1292.79ZM239.86 1282.25L200.361 1352L159.067 1292.25L180.392 1248.04L239.86 1282.25ZM175.178 1245.04L155.144 1286.57L129.39 1249.31L156 1234L175.178 1245.04Z" fill="white"/>
</g>
<g clip-path="url(#clip34_11_354)">
<path d="M433.111 1438.01L395.5 1516L400.904 1518.61L437.318 1443.1L474.378 1487.94L441.5 1546L446.721 1548.96L478.47 1492.89L539.253 1566.44L507 1585L354.5 1497.25V1342.89L433.111 1438.01ZM628.266 1473.83L595.534 1534.06L544.528 1563.41L481.635 1487.3L551.867 1363.29L628.266 1473.83ZM648.733 1503.44L605.47 1528.34L632.088 1479.36L648.733 1503.44ZM659.5 1497.25L653.952 1500.44L635.299 1473.45L659.5 1428.92V1497.25ZM548.076 1357.8L477.543 1482.35L440.187 1437.15L507.069 1298.47L548.076 1357.8ZM659.5 1321.75V1416.36L631.477 1467.92L555.151 1357.48L596.062 1285.25L659.5 1321.75ZM503.146 1292.79L435.98 1432.06L354.5 1333.47V1321.75L475.172 1252.31L503.146 1292.79ZM590.86 1282.25L551.361 1352L510.067 1292.25L531.392 1248.04L590.86 1282.25ZM526.178 1245.04L506.144 1286.57L480.39 1249.31L507 1234L526.178 1245.04Z" fill="white"/>
</g>
<g clip-path="url(#clip35_11_354)">
<path d="M784.111 1438.01L746.5 1516L751.904 1518.61L788.318 1443.1L825.378 1487.94L792.5 1546L797.721 1548.96L829.47 1492.89L890.253 1566.44L858 1585L705.5 1497.25V1342.89L784.111 1438.01ZM979.266 1473.83L946.534 1534.06L895.528 1563.41L832.635 1487.3L902.867 1363.29L979.266 1473.83ZM999.733 1503.44L956.47 1528.34L983.088 1479.36L999.733 1503.44ZM1010.5 1497.25L1004.95 1500.44L986.299 1473.45L1010.5 1428.92V1497.25ZM899.076 1357.8L828.543 1482.35L791.187 1437.15L858.069 1298.47L899.076 1357.8ZM1010.5 1321.75V1416.36L982.477 1467.92L906.151 1357.48L947.062 1285.25L1010.5 1321.75ZM854.146 1292.79L786.98 1432.06L705.5 1333.47V1321.75L826.172 1252.31L854.146 1292.79ZM941.86 1282.25L902.361 1352L861.067 1292.25L882.392 1248.04L941.86 1282.25ZM877.178 1245.04L857.144 1286.57L831.39 1249.31L858 1234L877.178 1245.04Z" fill="white"/>
</g>
<g clip-path="url(#clip36_11_354)">
<path d="M1135.11 1438.01L1097.5 1516L1102.9 1518.61L1139.32 1443.1L1176.38 1487.94L1143.5 1546L1148.72 1548.96L1180.47 1492.89L1241.25 1566.44L1209 1585L1056.5 1497.25V1342.89L1135.11 1438.01ZM1330.27 1473.83L1297.53 1534.06L1246.53 1563.41L1183.63 1487.3L1253.87 1363.29L1330.27 1473.83ZM1350.73 1503.44L1307.47 1528.34L1334.09 1479.36L1350.73 1503.44ZM1361.5 1497.25L1355.95 1500.44L1337.3 1473.45L1361.5 1428.92V1497.25ZM1250.08 1357.8L1179.54 1482.35L1142.19 1437.15L1209.07 1298.47L1250.08 1357.8ZM1361.5 1321.75V1416.36L1333.48 1467.92L1257.15 1357.48L1298.06 1285.25L1361.5 1321.75ZM1205.15 1292.79L1137.98 1432.06L1056.5 1333.47V1321.75L1177.17 1252.31L1205.15 1292.79ZM1292.86 1282.25L1253.36 1352L1212.07 1292.25L1233.39 1248.04L1292.86 1282.25ZM1228.18 1245.04L1208.14 1286.57L1182.39 1249.31L1209 1234L1228.18 1245.04Z" fill="white"/>
</g>
<g clip-path="url(#clip37_11_354)">
<path d="M82.1113 2055.01L44.5 2133L49.9043 2135.61L86.3184 2060.1L123.378 2104.94L90.5 2163L95.7207 2165.96L127.47 2109.89L188.253 2183.44L156 2202L3.5 2114.25V1959.89L82.1113 2055.01ZM277.266 2090.83L244.534 2151.06L193.528 2180.41L130.635 2104.3L200.867 1980.29L277.266 2090.83ZM297.733 2120.44L254.47 2145.34L281.088 2096.36L297.733 2120.44ZM308.5 2114.25L302.952 2117.44L284.299 2090.45L308.5 2045.92V2114.25ZM197.076 1974.8L126.543 2099.35L89.1865 2054.15L156.069 1915.47L197.076 1974.8ZM308.5 1938.75V2033.36L280.477 2084.92L204.151 1974.48L245.062 1902.25L308.5 1938.75ZM152.146 1909.79L84.9805 2049.06L3.5 1950.47V1938.75L124.172 1869.31L152.146 1909.79ZM239.86 1899.25L200.361 1969L159.067 1909.25L180.392 1865.04L239.86 1899.25ZM175.178 1862.04L155.144 1903.57L129.39 1866.31L156 1851L175.178 1862.04Z" fill="white"/>
</g>
<g clip-path="url(#clip38_11_354)">
<path d="M433.111 2055.01L395.5 2133L400.904 2135.61L437.318 2060.1L474.378 2104.94L441.5 2163L446.721 2165.96L478.47 2109.89L539.253 2183.44L507 2202L354.5 2114.25V1959.89L433.111 2055.01ZM628.266 2090.83L595.534 2151.06L544.528 2180.41L481.635 2104.3L551.867 1980.29L628.266 2090.83ZM648.733 2120.44L605.47 2145.34L632.088 2096.36L648.733 2120.44ZM659.5 2114.25L653.952 2117.44L635.299 2090.45L659.5 2045.92V2114.25ZM548.076 1974.8L477.543 2099.35L440.187 2054.15L507.069 1915.47L548.076 1974.8ZM659.5 1938.75V2033.36L631.477 2084.92L555.151 1974.48L596.062 1902.25L659.5 1938.75ZM503.146 1909.79L435.98 2049.06L354.5 1950.47V1938.75L475.172 1869.31L503.146 1909.79ZM590.86 1899.25L551.361 1969L510.067 1909.25L531.392 1865.04L590.86 1899.25ZM526.178 1862.04L506.144 1903.57L480.39 1866.31L507 1851L526.178 1862.04Z" fill="white"/>
</g>
<g clip-path="url(#clip39_11_354)">
<path d="M784.111 2055.01L746.5 2133L751.904 2135.61L788.318 2060.1L825.378 2104.94L792.5 2163L797.721 2165.96L829.47 2109.89L890.253 2183.44L858 2202L705.5 2114.25V1959.89L784.111 2055.01ZM979.266 2090.83L946.534 2151.06L895.528 2180.41L832.635 2104.3L902.867 1980.29L979.266 2090.83ZM999.733 2120.44L956.47 2145.34L983.088 2096.36L999.733 2120.44ZM1010.5 2114.25L1004.95 2117.44L986.299 2090.45L1010.5 2045.92V2114.25ZM899.076 1974.8L828.543 2099.35L791.187 2054.15L858.069 1915.47L899.076 1974.8ZM1010.5 1938.75V2033.36L982.477 2084.92L906.151 1974.48L947.062 1902.25L1010.5 1938.75ZM854.146 1909.79L786.98 2049.06L705.5 1950.47V1938.75L826.172 1869.31L854.146 1909.79ZM941.86 1899.25L902.361 1969L861.067 1909.25L882.392 1865.04L941.86 1899.25ZM877.178 1862.04L857.144 1903.57L831.39 1866.31L858 1851L877.178 1862.04Z" fill="white"/>
</g>
<g clip-path="url(#clip40_11_354)">
<path d="M1135.11 2055.01L1097.5 2133L1102.9 2135.61L1139.32 2060.1L1176.38 2104.94L1143.5 2163L1148.72 2165.96L1180.47 2109.89L1241.25 2183.44L1209 2202L1056.5 2114.25V1959.89L1135.11 2055.01ZM1330.27 2090.83L1297.53 2151.06L1246.53 2180.41L1183.63 2104.3L1253.87 1980.29L1330.27 2090.83ZM1350.73 2120.44L1307.47 2145.34L1334.09 2096.36L1350.73 2120.44ZM1361.5 2114.25L1355.95 2117.44L1337.3 2090.45L1361.5 2045.92V2114.25ZM1250.08 1974.8L1179.54 2099.35L1142.19 2054.15L1209.07 1915.47L1250.08 1974.8ZM1361.5 1938.75V2033.36L1333.48 2084.92L1257.15 1974.48L1298.06 1902.25L1361.5 1938.75ZM1205.15 1909.79L1137.98 2049.06L1056.5 1950.47V1938.75L1177.17 1869.31L1205.15 1909.79ZM1292.86 1899.25L1253.36 1969L1212.07 1909.25L1233.39 1865.04L1292.86 1899.25ZM1228.18 1862.04L1208.14 1903.57L1182.39 1866.31L1209 1851L1228.18 1862.04Z" fill="white"/>
</g>
<g clip-path="url(#clip41_11_354)">
<path d="M433.111 2672.01L395.5 2750L400.904 2752.61L437.318 2677.1L474.378 2721.94L441.5 2780L446.721 2782.96L478.47 2726.89L539.253 2800.44L507 2819L354.5 2731.25V2576.89L433.111 2672.01ZM628.266 2707.83L595.534 2768.06L544.528 2797.41L481.635 2721.3L551.867 2597.29L628.266 2707.83ZM648.733 2737.44L605.47 2762.34L632.088 2713.36L648.733 2737.44ZM659.5 2731.25L653.952 2734.44L635.299 2707.45L659.5 2662.92V2731.25ZM548.076 2591.8L477.543 2716.35L440.187 2671.15L507.069 2532.47L548.076 2591.8ZM659.5 2555.75V2650.36L631.477 2701.92L555.151 2591.48L596.062 2519.25L659.5 2555.75ZM503.146 2526.79L435.98 2666.06L354.5 2567.47V2555.75L475.172 2486.31L503.146 2526.79ZM590.86 2516.25L551.361 2586L510.067 2526.25L531.392 2482.04L590.86 2516.25ZM526.178 2479.04L506.144 2520.57L480.39 2483.31L507 2468L526.178 2479.04Z" fill="white"/>
</g>
<g clip-path="url(#clip42_11_354)">
<path d="M784.111 2672.01L746.5 2750L751.904 2752.61L788.318 2677.1L825.378 2721.94L792.5 2780L797.721 2782.96L829.47 2726.89L890.253 2800.44L858 2819L705.5 2731.25V2576.89L784.111 2672.01ZM979.266 2707.83L946.534 2768.06L895.528 2797.41L832.635 2721.3L902.867 2597.29L979.266 2707.83ZM999.733 2737.44L956.47 2762.34L983.088 2713.36L999.733 2737.44ZM1010.5 2731.25L1004.95 2734.44L986.299 2707.45L1010.5 2662.92V2731.25ZM899.076 2591.8L828.543 2716.35L791.187 2671.15L858.069 2532.47L899.076 2591.8ZM1010.5 2555.75V2650.36L982.477 2701.92L906.151 2591.48L947.062 2519.25L1010.5 2555.75ZM854.146 2526.79L786.98 2666.06L705.5 2567.47V2555.75L826.172 2486.31L854.146 2526.79ZM941.86 2516.25L902.361 2586L861.067 2526.25L882.392 2482.04L941.86 2516.25ZM877.178 2479.04L857.144 2520.57L831.39 2483.31L858 2468L877.178 2479.04Z" fill="white"/>
</g>
<g clip-path="url(#clip43_11_354)">
<path d="M1135.11 2672.01L1097.5 2750L1102.9 2752.61L1139.32 2677.1L1176.38 2721.94L1143.5 2780L1148.72 2782.96L1180.47 2726.89L1241.25 2800.44L1209 2819L1056.5 2731.25V2576.89L1135.11 2672.01ZM1330.27 2707.83L1297.53 2768.06L1246.53 2797.41L1183.63 2721.3L1253.87 2597.29L1330.27 2707.83ZM1350.73 2737.44L1307.47 2762.34L1334.09 2713.36L1350.73 2737.44ZM1361.5 2731.25L1355.95 2734.44L1337.3 2707.45L1361.5 2662.92V2731.25ZM1250.08 2591.8L1179.54 2716.35L1142.19 2671.15L1209.07 2532.47L1250.08 2591.8ZM1361.5 2555.75V2650.36L1333.48 2701.92L1257.15 2591.48L1298.06 2519.25L1361.5 2555.75ZM1205.15 2526.79L1137.98 2666.06L1056.5 2567.47V2555.75L1177.17 2486.31L1205.15 2526.79ZM1292.86 2516.25L1253.36 2586L1212.07 2526.25L1233.39 2482.04L1292.86 2516.25ZM1228.18 2479.04L1208.14 2520.57L1182.39 2483.31L1209 2468L1228.18 2479.04Z" fill="white"/>
</g>
<g clip-path="url(#clip44_11_354)">
<path d="M82.1113 3289.01L44.5 3367L49.9043 3369.61L86.3184 3294.1L123.378 3338.94L90.5 3397L95.7207 3399.96L127.47 3343.89L188.253 3417.44L156 3436L3.5 3348.25V3193.89L82.1113 3289.01ZM277.266 3324.83L244.534 3385.06L193.528 3414.41L130.635 3338.3L200.867 3214.29L277.266 3324.83ZM297.733 3354.44L254.47 3379.34L281.088 3330.36L297.733 3354.44ZM308.5 3348.25L302.952 3351.44L284.299 3324.45L308.5 3279.92V3348.25ZM197.076 3208.8L126.543 3333.35L89.1865 3288.15L156.069 3149.47L197.076 3208.8ZM308.5 3172.75V3267.36L280.477 3318.92L204.151 3208.48L245.062 3136.25L308.5 3172.75ZM152.146 3143.79L84.9805 3283.06L3.5 3184.47V3172.75L124.172 3103.31L152.146 3143.79ZM239.86 3133.25L200.361 3203L159.067 3143.25L180.392 3099.04L239.86 3133.25ZM175.178 3096.04L155.144 3137.57L129.39 3100.31L156 3085L175.178 3096.04Z" fill="white"/>
</g>
<g clip-path="url(#clip45_11_354)">
<path d="M433.111 3289.01L395.5 3367L400.904 3369.61L437.318 3294.1L474.378 3338.94L441.5 3397L446.721 3399.96L478.47 3343.89L539.253 3417.44L507 3436L354.5 3348.25V3193.89L433.111 3289.01ZM628.266 3324.83L595.534 3385.06L544.528 3414.41L481.635 3338.3L551.867 3214.29L628.266 3324.83ZM648.733 3354.44L605.47 3379.34L632.088 3330.36L648.733 3354.44ZM659.5 3348.25L653.952 3351.44L635.299 3324.45L659.5 3279.92V3348.25ZM548.076 3208.8L477.543 3333.35L440.187 3288.15L507.069 3149.47L548.076 3208.8ZM659.5 3172.75V3267.36L631.477 3318.92L555.151 3208.48L596.062 3136.25L659.5 3172.75ZM503.146 3143.79L435.98 3283.06L354.5 3184.47V3172.75L475.172 3103.31L503.146 3143.79ZM590.86 3133.25L551.361 3203L510.067 3143.25L531.392 3099.04L590.86 3133.25ZM526.178 3096.04L506.144 3137.57L480.39 3100.31L507 3085L526.178 3096.04Z" fill="white"/>
</g>
<g clip-path="url(#clip46_11_354)">
<path d="M784.111 3289.01L746.5 3367L751.904 3369.61L788.318 3294.1L825.378 3338.94L792.5 3397L797.721 3399.96L829.47 3343.89L890.253 3417.44L858 3436L705.5 3348.25V3193.89L784.111 3289.01ZM979.266 3324.83L946.534 3385.06L895.528 3414.41L832.635 3338.3L902.867 3214.29L979.266 3324.83ZM999.733 3354.44L956.47 3379.34L983.088 3330.36L999.733 3354.44ZM1010.5 3348.25L1004.95 3351.44L986.299 3324.45L1010.5 3279.92V3348.25ZM899.076 3208.8L828.543 3333.35L791.187 3288.15L858.069 3149.47L899.076 3208.8ZM1010.5 3172.75V3267.36L982.477 3318.92L906.151 3208.48L947.062 3136.25L1010.5 3172.75ZM854.146 3143.79L786.98 3283.06L705.5 3184.47V3172.75L826.172 3103.31L854.146 3143.79ZM941.86 3133.25L902.361 3203L861.067 3143.25L882.392 3099.04L941.86 3133.25ZM877.178 3096.04L857.144 3137.57L831.39 3100.31L858 3085L877.178 3096.04Z" fill="white"/>
</g>
<g clip-path="url(#clip47_11_354)">
<path d="M1135.11 3289.01L1097.5 3367L1102.9 3369.61L1139.32 3294.1L1176.38 3338.94L1143.5 3397L1148.72 3399.96L1180.47 3343.89L1241.25 3417.44L1209 3436L1056.5 3348.25V3193.89L1135.11 3289.01ZM1330.27 3324.83L1297.53 3385.06L1246.53 3414.41L1183.63 3338.3L1253.87 3214.29L1330.27 3324.83ZM1350.73 3354.44L1307.47 3379.34L1334.09 3330.36L1350.73 3354.44ZM1361.5 3348.25L1355.95 3351.44L1337.3 3324.45L1361.5 3279.92V3348.25ZM1250.08 3208.8L1179.54 3333.35L1142.19 3288.15L1209.07 3149.47L1250.08 3208.8ZM1361.5 3172.75V3267.36L1333.48 3318.92L1257.15 3208.48L1298.06 3136.25L1361.5 3172.75ZM1205.15 3143.79L1137.98 3283.06L1056.5 3184.47V3172.75L1177.17 3103.31L1205.15 3143.79ZM1292.86 3133.25L1253.36 3203L1212.07 3143.25L1233.39 3099.04L1292.86 3133.25ZM1228.18 3096.04L1208.14 3137.57L1182.39 3100.31L1209 3085L1228.18 3096.04Z" fill="white"/>
</g>
<g clip-path="url(#clip48_11_354)">
<path d="M82.1113 3906.01L44.5 3984L49.9043 3986.61L86.3184 3911.1L123.378 3955.94L90.5 4014L95.7207 4016.96L127.47 3960.89L188.253 4034.44L156 4053L3.5 3965.25V3810.89L82.1113 3906.01ZM277.266 3941.83L244.534 4002.06L193.528 4031.41L130.635 3955.3L200.867 3831.29L277.266 3941.83ZM297.733 3971.44L254.47 3996.34L281.088 3947.36L297.733 3971.44ZM308.5 3965.25L302.952 3968.44L284.299 3941.45L308.5 3896.92V3965.25ZM197.076 3825.8L126.543 3950.35L89.1865 3905.15L156.069 3766.47L197.076 3825.8ZM308.5 3789.75V3884.36L280.477 3935.92L204.151 3825.48L245.062 3753.25L308.5 3789.75ZM152.146 3760.79L84.9805 3900.06L3.5 3801.47V3789.75L124.172 3720.31L152.146 3760.79ZM239.86 3750.25L200.361 3820L159.067 3760.25L180.392 3716.04L239.86 3750.25ZM175.178 3713.04L155.144 3754.57L129.39 3717.31L156 3702L175.178 3713.04Z" fill="white"/>
</g>
<g clip-path="url(#clip49_11_354)">
<path d="M433.111 3906.01L395.5 3984L400.904 3986.61L437.318 3911.1L474.378 3955.94L441.5 4014L446.721 4016.96L478.47 3960.89L539.253 4034.44L507 4053L354.5 3965.25V3810.89L433.111 3906.01ZM628.266 3941.83L595.534 4002.06L544.528 4031.41L481.635 3955.3L551.867 3831.29L628.266 3941.83ZM648.733 3971.44L605.47 3996.34L632.088 3947.36L648.733 3971.44ZM659.5 3965.25L653.952 3968.44L635.299 3941.45L659.5 3896.92V3965.25ZM548.076 3825.8L477.543 3950.35L440.187 3905.15L507.069 3766.47L548.076 3825.8ZM659.5 3789.75V3884.36L631.477 3935.92L555.151 3825.48L596.062 3753.25L659.5 3789.75ZM503.146 3760.79L435.98 3900.06L354.5 3801.47V3789.75L475.172 3720.31L503.146 3760.79ZM590.86 3750.25L551.361 3820L510.067 3760.25L531.392 3716.04L590.86 3750.25ZM526.178 3713.04L506.144 3754.57L480.39 3717.31L507 3702L526.178 3713.04Z" fill="white"/>
</g>
<g clip-path="url(#clip50_11_354)">
<path d="M784.111 3906.01L746.5 3984L751.904 3986.61L788.318 3911.1L825.378 3955.94L792.5 4014L797.721 4016.96L829.47 3960.89L890.253 4034.44L858 4053L705.5 3965.25V3810.89L784.111 3906.01ZM979.266 3941.83L946.534 4002.06L895.528 4031.41L832.635 3955.3L902.867 3831.29L979.266 3941.83ZM999.733 3971.44L956.47 3996.34L983.088 3947.36L999.733 3971.44ZM1010.5 3965.25L1004.95 3968.44L986.299 3941.45L1010.5 3896.92V3965.25ZM899.076 3825.8L828.543 3950.35L791.187 3905.15L858.069 3766.47L899.076 3825.8ZM1010.5 3789.75V3884.36L982.477 3935.92L906.151 3825.48L947.062 3753.25L1010.5 3789.75ZM854.146 3760.79L786.98 3900.06L705.5 3801.47V3789.75L826.172 3720.31L854.146 3760.79ZM941.86 3750.25L902.361 3820L861.067 3760.25L882.392 3716.04L941.86 3750.25ZM877.178 3713.04L857.144 3754.57L831.39 3717.31L858 3702L877.178 3713.04Z" fill="white"/>
</g>
<g clip-path="url(#clip51_11_354)">
<path d="M1135.11 3906.01L1097.5 3984L1102.9 3986.61L1139.32 3911.1L1176.38 3955.94L1143.5 4014L1148.72 4016.96L1180.47 3960.89L1241.25 4034.44L1209 4053L1056.5 3965.25V3810.89L1135.11 3906.01ZM1330.27 3941.83L1297.53 4002.06L1246.53 4031.41L1183.63 3955.3L1253.87 3831.29L1330.27 3941.83ZM1350.73 3971.44L1307.47 3996.34L1334.09 3947.36L1350.73 3971.44ZM1361.5 3965.25L1355.95 3968.44L1337.3 3941.45L1361.5 3896.92V3965.25ZM1250.08 3825.8L1179.54 3950.35L1142.19 3905.15L1209.07 3766.47L1250.08 3825.8ZM1361.5 3789.75V3884.36L1333.48 3935.92L1257.15 3825.48L1298.06 3753.25L1361.5 3789.75ZM1205.15 3760.79L1137.98 3900.06L1056.5 3801.47V3789.75L1177.17 3720.31L1205.15 3760.79ZM1292.86 3750.25L1253.36 3820L1212.07 3760.25L1233.39 3716.04L1292.86 3750.25ZM1228.18 3713.04L1208.14 3754.57L1182.39 3717.31L1209 3702L1228.18 3713.04Z" fill="white"/>
</g>
</g>
<defs>
<clipPath id="clip0_11_354">
<rect width="1536" height="4053" fill="white"/>
</clipPath>
<clipPath id="clip1_11_354">
<rect width="305" height="351" fill="white" transform="translate(178.5 305)"/>
</clipPath>
<clipPath id="clip2_11_354">
<rect width="305" height="351" fill="white" transform="translate(529.5 305)"/>
</clipPath>
<clipPath id="clip3_11_354">
<rect width="305" height="351" fill="white" transform="translate(880.5 305)"/>
</clipPath>
<clipPath id="clip4_11_354">
<rect width="305" height="351" fill="white" transform="translate(1231.5 305)"/>
</clipPath>
<clipPath id="clip5_11_354">
<rect width="305" height="351" fill="white" transform="translate(178.5 922)"/>
</clipPath>
<clipPath id="clip6_11_354">
<rect width="305" height="351" fill="white" transform="translate(529.5 922)"/>
</clipPath>
<clipPath id="clip7_11_354">
<rect width="305" height="351" fill="white" transform="translate(880.5 922)"/>
</clipPath>
<clipPath id="clip8_11_354">
<rect width="305" height="351" fill="white" transform="translate(1231.5 922)"/>
</clipPath>
<clipPath id="clip9_11_354">
<rect width="305" height="351" fill="white" transform="translate(178.5 1539)"/>
</clipPath>
<clipPath id="clip10_11_354">
<rect width="305" height="351" fill="white" transform="translate(529.5 1539)"/>
</clipPath>
<clipPath id="clip11_11_354">
<rect width="305" height="351" fill="white" transform="translate(880.5 1539)"/>
</clipPath>
<clipPath id="clip12_11_354">
<rect width="305" height="351" fill="white" transform="translate(1231.5 1539)"/>
</clipPath>
<clipPath id="clip13_11_354">
<rect width="305" height="351" fill="white" transform="translate(178.5 2156)"/>
</clipPath>
<clipPath id="clip14_11_354">
<rect width="305" height="351" fill="white" transform="translate(529.5 2156)"/>
</clipPath>
<clipPath id="clip15_11_354">
<rect width="305" height="351" fill="white" transform="translate(880.5 2156)"/>
</clipPath>
<clipPath id="clip16_11_354">
<rect width="305" height="351" fill="white" transform="translate(1231.5 2156)"/>
</clipPath>
<clipPath id="clip17_11_354">
<rect width="305" height="351" fill="white" transform="translate(178.5 2773)"/>
</clipPath>
<clipPath id="clip18_11_354">
<rect width="305" height="351" fill="white" transform="translate(529.5 2773)"/>
</clipPath>
<clipPath id="clip19_11_354">
<rect width="305" height="351" fill="white" transform="translate(880.5 2773)"/>
</clipPath>
<clipPath id="clip20_11_354">
<rect width="305" height="351" fill="white" transform="translate(1231.5 2773)"/>
</clipPath>
<clipPath id="clip21_11_354">
<rect width="305" height="351" fill="white" transform="translate(178.5 3390)"/>
</clipPath>
<clipPath id="clip22_11_354">
<rect width="305" height="351" fill="white" transform="translate(529.5 3390)"/>
</clipPath>
<clipPath id="clip23_11_354">
<rect width="305" height="351" fill="white" transform="translate(880.5 3390)"/>
</clipPath>
<clipPath id="clip24_11_354">
<rect width="305" height="351" fill="white" transform="translate(1231.5 3390)"/>
</clipPath>
<clipPath id="clip25_11_354">
<rect width="305" height="351" fill="white" transform="translate(3.5)"/>
</clipPath>
<clipPath id="clip26_11_354">
<rect width="305" height="351" fill="white" transform="translate(354.5)"/>
</clipPath>
<clipPath id="clip27_11_354">
<rect width="305" height="351" fill="white" transform="translate(705.5)"/>
</clipPath>
<clipPath id="clip28_11_354">
<rect width="305" height="351" fill="white" transform="translate(1056.5)"/>
</clipPath>
<clipPath id="clip29_11_354">
<rect width="305" height="351" fill="white" transform="translate(3.5 617)"/>
</clipPath>
<clipPath id="clip30_11_354">
<rect width="305" height="351" fill="white" transform="translate(354.5 617)"/>
</clipPath>
<clipPath id="clip31_11_354">
<rect width="305" height="351" fill="white" transform="translate(705.5 617)"/>
</clipPath>
<clipPath id="clip32_11_354">
<rect width="305" height="351" fill="white" transform="translate(1056.5 617)"/>
</clipPath>
<clipPath id="clip33_11_354">
<rect width="305" height="351" fill="white" transform="translate(3.5 1234)"/>
</clipPath>
<clipPath id="clip34_11_354">
<rect width="305" height="351" fill="white" transform="translate(354.5 1234)"/>
</clipPath>
<clipPath id="clip35_11_354">
<rect width="305" height="351" fill="white" transform="translate(705.5 1234)"/>
</clipPath>
<clipPath id="clip36_11_354">
<rect width="305" height="351" fill="white" transform="translate(1056.5 1234)"/>
</clipPath>
<clipPath id="clip37_11_354">
<rect width="305" height="351" fill="white" transform="translate(3.5 1851)"/>
</clipPath>
<clipPath id="clip38_11_354">
<rect width="305" height="351" fill="white" transform="translate(354.5 1851)"/>
</clipPath>
<clipPath id="clip39_11_354">
<rect width="305" height="351" fill="white" transform="translate(705.5 1851)"/>
</clipPath>
<clipPath id="clip40_11_354">
<rect width="305" height="351" fill="white" transform="translate(1056.5 1851)"/>
</clipPath>
<clipPath id="clip41_11_354">
<rect width="305" height="351" fill="white" transform="translate(354.5 2468)"/>
</clipPath>
<clipPath id="clip42_11_354">
<rect width="305" height="351" fill="white" transform="translate(705.5 2468)"/>
</clipPath>
<clipPath id="clip43_11_354">
<rect width="305" height="351" fill="white" transform="translate(1056.5 2468)"/>
</clipPath>
<clipPath id="clip44_11_354">
<rect width="305" height="351" fill="white" transform="translate(3.5 3085)"/>
</clipPath>
<clipPath id="clip45_11_354">
<rect width="305" height="351" fill="white" transform="translate(354.5 3085)"/>
</clipPath>
<clipPath id="clip46_11_354">
<rect width="305" height="351" fill="white" transform="translate(705.5 3085)"/>
</clipPath>
<clipPath id="clip47_11_354">
<rect width="305" height="351" fill="white" transform="translate(1056.5 3085)"/>
</clipPath>
<clipPath id="clip48_11_354">
<rect width="305" height="351" fill="white" transform="translate(3.5 3702)"/>
</clipPath>
<clipPath id="clip49_11_354">
<rect width="305" height="351" fill="white" transform="translate(354.5 3702)"/>
</clipPath>
<clipPath id="clip50_11_354">
<rect width="305" height="351" fill="white" transform="translate(705.5 3702)"/>
</clipPath>
<clipPath id="clip51_11_354">
<rect width="305" height="351" fill="white" transform="translate(1056.5 3702)"/>
</clipPath>
</defs>
</svg>
